<svg width="651" height="191" viewBox="0 0 651 191" fill="none" xmlns="http://www.w3.org/2000/svg">
<g opacity="0.5" clip-path="url(#clip0)">
<path fill-rule="evenodd" clip-rule="evenodd" d="M92.6279 5.13643e-06C70.627 -0.00732493 49.3419 7.83097 32.5834 22.1115C15.8248 36.3921 4.68721 56.1824 1.16458 77.9392C-2.35804 99.696 1.96435 121.999 13.3579 140.854C24.7514 159.709 42.4721 173.886 63.3472 180.846C67.9487 181.707 69.6665 178.833 69.6665 176.375C69.6665 174.162 69.5899 166.863 69.5438 159.103C43.7756 164.712 38.3459 148.162 38.3459 148.162C34.1279 137.406 28.054 134.578 28.054 134.578C19.6486 128.816 28.6828 128.939 28.6828 128.939C37.9931 129.6 42.886 138.497 42.886 138.497C51.1533 152.68 64.5589 148.592 69.8353 146.18C70.6789 140.187 73.0716 136.1 75.7251 133.779C55.218 131.459 33.5144 123.499 33.5144 87.9415C33.3767 78.706 36.7994 69.7731 43.0701 63.002C42.1038 60.6663 38.9288 51.2314 43.9597 38.4158C43.9597 38.4158 51.7362 35.9265 69.4365 47.9276C84.6239 43.7683 100.647 43.7683 115.835 47.9276C133.443 35.988 141.281 38.4158 141.281 38.4158C146.312 51.2006 143.152 60.6355 142.186 63.002C148.439 69.7693 151.85 78.6898 151.711 87.9108C151.711 123.561 130.053 131.397 109.423 133.702C112.736 136.576 115.697 142.231 115.697 150.882C115.697 163.298 115.605 173.301 115.605 176.344C115.605 178.818 117.261 181.707 121.955 180.8C142.799 173.814 160.485 159.629 171.851 140.78C183.216 121.932 187.521 99.6484 183.995 77.9127C180.469 56.1771 169.343 36.4059 152.605 22.1326C135.867 7.85943 114.608 0.0145156 92.6279 5.13643e-06V5.13643e-06Z" fill="white"/>
<path d="M35.0785 133.226C34.8791 133.687 34.1582 133.825 33.5447 133.518C32.9312 133.211 32.4864 132.581 32.7011 132.12C32.9158 131.659 33.6367 131.52 34.2349 131.828C34.8331 132.135 35.2933 132.765 35.0632 133.226H35.0785Z" fill="white"/>
<path d="M38.8364 137.421C38.3916 137.836 37.5327 137.636 36.9345 136.991C36.6549 136.764 36.4722 136.439 36.4237 136.082C36.3753 135.725 36.4647 135.363 36.6737 135.07C37.1339 134.655 37.9621 134.855 38.5757 135.5C39.1892 136.146 39.2965 137.037 38.8364 137.421Z" fill="white"/>
<path d="M42.4869 142.769C41.9194 143.168 40.9531 142.769 40.4162 141.97C39.8794 141.17 39.8487 140.156 40.4162 139.757C40.9837 139.357 41.9501 139.757 42.4869 140.54C43.0237 141.324 43.0544 142.369 42.4869 142.769V142.769Z" fill="white"/>
<path d="M47.5485 147.932C47.3619 148.067 47.1503 148.164 46.926 148.216C46.7017 148.268 46.4693 148.275 46.2422 148.237C46.0152 148.198 45.7981 148.115 45.6036 147.991C45.4092 147.867 45.2413 147.706 45.1097 147.517C44.2968 146.764 44.0667 145.704 44.5882 145.15C45.1097 144.597 46.122 144.735 46.981 145.504C47.8399 146.272 48.024 147.317 47.4871 147.87L47.5485 147.932Z" fill="white"/>
<path d="M54.3893 150.928C54.1593 151.65 53.1316 151.988 52.0733 151.681C51.0149 151.374 50.3401 150.513 50.5395 149.776C50.7388 149.038 51.7972 148.7 52.8555 149.023C53.9139 149.345 54.5887 150.191 54.3893 150.928Z" fill="white"/>
<path d="M61.9664 151.481C61.9664 152.25 61.1075 152.88 60.0031 152.895C58.8988 152.91 58.0092 152.311 57.9938 151.543C57.9785 150.774 58.8528 150.144 59.9724 150.129C61.0921 150.114 61.9664 150.728 61.9664 151.481V151.481Z" fill="white"/>
<path d="M69.022 150.283C69.1601 151.036 68.3931 151.819 67.3041 152.004C66.2151 152.188 65.2335 151.743 65.0954 150.99C64.9574 150.237 65.7396 149.453 66.8133 149.269C67.887 149.084 68.884 149.53 69.022 150.283Z" fill="white"/>
<path d="M298.528 86.2358H261.839C261.387 86.2358 260.954 86.4156 260.635 86.7354C260.316 87.0553 260.136 87.4891 260.136 87.9415V105.92C260.136 106.374 260.315 106.809 260.634 107.132C260.953 107.454 261.386 107.637 261.839 107.641H276.088V129.953C276.088 129.953 272.882 131.059 264.001 131.059C253.51 131.059 238.877 127.218 238.877 94.9639C238.877 62.71 254.185 58.3921 268.496 58.3921C275.675 58.1558 282.837 59.2552 289.616 61.6344C289.865 61.6816 290.122 61.6735 290.368 61.6106C290.613 61.5477 290.842 61.4315 291.038 61.2703C291.234 61.1091 291.392 60.9068 291.502 60.6777C291.611 60.4485 291.669 60.1981 291.672 59.9441L295.767 42.5955C295.774 42.3336 295.717 42.0739 295.602 41.8385C295.488 41.6031 295.318 41.3989 295.107 41.2432C293.727 40.2598 285.322 35.5423 264.063 35.5423C239.522 35.5423 214.444 45.9761 214.444 96.1625C214.444 146.349 243.203 153.817 267.437 153.817C287.515 153.817 299.647 145.227 299.647 145.227C299.84 145.072 299.993 144.871 300.091 144.644C300.19 144.417 300.233 144.169 300.215 143.921V87.9415C300.211 87.493 300.033 87.0638 299.717 86.7452C299.402 86.4266 298.975 86.2438 298.528 86.2358V86.2358Z" fill="white"/>
<path d="M487.587 41.612C487.575 41.1677 487.39 40.7456 487.072 40.4356C486.754 40.1257 486.328 39.9523 485.884 39.9525H465.224C464.771 39.9565 464.338 40.1396 464.019 40.4619C463.7 40.7842 463.521 41.2197 463.521 41.6735V81.6259H431.311V41.6735C431.311 41.2223 431.134 40.7892 430.818 40.4673C430.503 40.1454 430.074 39.9605 429.624 39.9525H408.963C408.51 39.9565 408.077 40.1396 407.758 40.4619C407.439 40.7842 407.26 41.2197 407.26 41.6735V149.899C407.258 150.125 407.301 150.349 407.385 150.558C407.47 150.768 407.595 150.959 407.753 151.12C407.911 151.281 408.099 151.41 408.307 151.498C408.514 151.586 408.737 151.633 408.963 151.635H429.624C429.849 151.633 430.072 151.586 430.28 151.498C430.487 151.41 430.676 151.281 430.834 151.12C430.992 150.959 431.117 150.768 431.201 150.558C431.286 150.349 431.328 150.125 431.326 149.899V103.584H463.536V149.899C463.536 150.356 463.717 150.796 464.039 151.121C464.36 151.446 464.797 151.631 465.254 151.635H485.961C486.186 151.633 486.409 151.586 486.617 151.498C486.825 151.41 487.013 151.281 487.171 151.12C487.329 150.959 487.454 150.768 487.538 150.558C487.623 150.349 487.665 150.125 487.663 149.899L487.587 41.612Z" fill="white"/>
<path d="M337.441 55.8259C337.414 53.1939 336.61 50.6289 335.13 48.4538C333.651 46.2786 331.562 44.5906 329.127 43.6022C326.692 42.6139 324.02 42.3694 321.446 42.8996C318.873 43.4297 316.514 44.7108 314.665 46.5816C312.817 48.4523 311.563 50.829 311.06 53.4125C310.558 55.996 310.829 58.6707 311.841 61.0998C312.852 63.529 314.559 65.604 316.745 67.0635C318.932 68.5231 321.5 69.302 324.127 69.3021C325.885 69.2941 327.624 68.939 329.245 68.2572C330.865 67.5754 332.336 66.5803 333.572 65.3287C334.809 64.0771 335.787 62.5936 336.451 60.963C337.114 59.3325 337.451 57.5868 337.441 55.8259V55.8259Z" fill="white"/>
<path d="M336.03 127.064V77.0775C336.038 76.8515 336.002 76.626 335.923 76.4141C335.844 76.2021 335.724 76.0078 335.57 75.8422C335.416 75.6767 335.232 75.5432 335.026 75.4493C334.821 75.3554 334.599 75.3029 334.373 75.295H313.728C313.246 75.3399 312.797 75.5602 312.467 75.9141C312.136 76.2681 311.946 76.7312 311.933 77.2158V148.823C311.933 150.928 313.252 151.558 315.001 151.558H333.56C335.585 151.558 336.091 150.559 336.091 148.792L336.03 127.064Z" fill="white"/>
<path d="M566.088 75.5102H545.596C545.139 75.5142 544.702 75.6989 544.38 76.0241C544.058 76.3493 543.878 76.7887 543.878 77.2466V130.337C540.142 132.814 535.765 134.143 531.285 134.163C523.892 134.163 521.929 130.798 521.929 123.545V77.2466C521.931 77.0205 521.888 76.7964 521.804 76.5868C521.72 76.3772 521.595 76.1863 521.437 76.0251C521.279 75.8638 521.09 75.7354 520.883 75.647C520.675 75.5587 520.452 75.5122 520.226 75.5102H499.428C499.202 75.5122 498.979 75.5587 498.772 75.647C498.564 75.7354 498.376 75.8638 498.217 76.0251C498.059 76.1863 497.935 76.3772 497.85 76.5868C497.766 76.7964 497.723 77.0205 497.725 77.2466V127.049C497.725 148.562 509.704 153.863 526.178 153.863C534.858 153.633 543.313 151.046 550.642 146.38C550.642 146.38 551.164 150.313 551.394 150.79C551.549 151.063 551.771 151.293 552.04 151.457C552.308 151.621 552.613 151.714 552.927 151.727H566.164C566.39 151.725 566.613 151.679 566.821 151.59C567.028 151.502 567.216 151.373 567.375 151.212C567.533 151.051 567.658 150.86 567.742 150.651C567.826 150.441 567.869 150.217 567.867 149.991V77.2466C567.867 77.0146 567.821 76.785 567.731 76.5712C567.641 76.3575 567.509 76.164 567.343 76.0022C567.177 75.8403 566.981 75.7134 566.765 75.6289C566.549 75.5444 566.319 75.504 566.088 75.5102V75.5102Z" fill="white"/>
<path d="M622.103 73.0823C615.23 73.0631 608.477 74.8884 602.547 78.3683V41.612C602.535 41.1677 602.35 40.7456 602.032 40.4356C601.714 40.1257 601.288 39.9523 600.844 39.9525H580.137C579.682 39.9525 579.245 40.1338 578.923 40.4565C578.601 40.7793 578.42 41.217 578.42 41.6735V149.899C578.42 150.356 578.6 150.796 578.922 151.121C579.244 151.446 579.68 151.631 580.137 151.635H594.509C594.826 151.641 595.137 151.557 595.408 151.394C595.679 151.231 595.899 150.995 596.043 150.713C596.464 149.074 596.757 147.404 596.917 145.719C596.917 145.719 605.399 153.771 621.459 153.771C640.279 153.771 651.077 144.198 651.077 110.822C651.077 77.4463 633.76 73.0823 622.103 73.0823ZM614.02 134.087C609.811 133.969 605.703 132.773 602.086 130.614V96.3469C605.347 94.4855 608.954 93.314 612.685 92.9048C620.063 92.2441 627.18 94.4415 627.18 112.113C627.18 130.721 623.974 134.394 614.02 134.087Z" fill="white"/>
<path d="M395.389 75.295H379.897V54.8271C379.897 54.0587 379.498 53.6746 378.593 53.6746H357.473C356.644 53.6746 356.199 54.028 356.199 54.8271V76.0172C356.199 76.0172 345.631 78.568 344.911 78.7832C344.553 78.8838 344.238 79.099 344.013 79.3959C343.789 79.6928 343.668 80.055 343.668 80.4274V93.7346C343.668 94.1911 343.849 94.6288 344.171 94.9516C344.493 95.2743 344.93 95.4556 345.386 95.4556H356.123V127.541C356.123 151.343 372.795 153.663 384.038 153.663C388.2 153.532 392.326 152.849 396.309 151.635C396.615 151.517 396.875 151.305 397.052 151.028C397.229 150.752 397.312 150.426 397.291 150.098V135.423C397.289 134.992 397.129 134.576 396.84 134.255C396.551 133.935 396.155 133.733 395.726 133.687C394.821 133.687 392.52 134.056 390.143 134.056C382.474 134.056 379.943 130.506 379.943 125.927V95.471H395.435C395.885 95.4589 396.312 95.2702 396.625 94.9454C396.938 94.6207 397.111 94.1858 397.107 93.7346V77.0621C397.113 76.8323 397.073 76.6035 396.989 76.3894C396.906 76.1752 396.78 75.98 396.62 75.8153C396.46 75.6506 396.268 75.5196 396.057 75.4303C395.845 75.3409 395.618 75.2949 395.389 75.295V75.295Z" fill="white"/>
<path d="M302.556 189V164.988H308.388V184.428H318.828V189H302.556ZM320.437 189L329.509 164.988H335.881L344.377 189H338.401L336.637 183.816H327.673L325.945 189H320.437ZM329.077 179.532H335.197L332.101 170.424L329.077 179.532ZM347.415 189V164.988H352.383L363.003 179.28V164.988H368.367V189H363.975L352.779 174.348V189H347.415ZM384.158 189.468C381.806 189.468 379.742 189.048 377.966 188.208C376.214 187.368 374.858 186.036 373.898 184.212C372.938 182.388 372.458 179.988 372.458 177.012C372.458 174.084 372.938 171.696 373.898 169.848C374.858 168 376.214 166.644 377.966 165.78C379.718 164.892 381.782 164.448 384.158 164.448C385.67 164.448 387.134 164.604 388.55 164.916C389.99 165.228 391.382 165.66 392.726 166.212V171.504C391.286 170.736 389.942 170.124 388.694 169.668C387.47 169.212 386.198 168.984 384.878 168.984C383.51 168.984 382.334 169.236 381.35 169.74C380.39 170.22 379.658 171.048 379.154 172.224C378.65 173.376 378.398 174.96 378.398 176.976C378.398 178.968 378.65 180.552 379.154 181.728C379.682 182.88 380.414 183.708 381.35 184.212C382.286 184.716 383.378 184.968 384.626 184.968C385.274 184.968 385.874 184.932 386.426 184.86C387.002 184.764 387.506 184.608 387.938 184.392V180.144H383.978V175.608H393.77V186.912C392.282 187.752 390.722 188.388 389.09 188.82C387.482 189.252 385.838 189.468 384.158 189.468ZM409.936 189.72C406.24 189.72 403.468 188.94 401.62 187.38C399.796 185.82 398.884 183.372 398.884 180.036V164.988H404.968V179.784C404.968 181.632 405.34 183 406.084 183.888C406.828 184.776 408.016 185.22 409.648 185.22C411.136 185.22 412.288 184.776 413.104 183.888C413.944 183 414.364 181.632 414.364 179.784V164.988H419.908V180.036C419.908 182.268 419.476 184.104 418.612 185.544C417.772 186.96 416.596 188.016 415.084 188.712C413.596 189.384 411.88 189.72 409.936 189.72ZM422.917 189L431.989 164.988H438.361L446.857 189H440.881L439.117 183.816H430.153L428.425 189H422.917ZM431.557 179.532H437.677L434.581 170.424L431.557 179.532ZM459.779 189.468C457.427 189.468 455.363 189.048 453.587 188.208C451.835 187.368 450.479 186.036 449.519 184.212C448.559 182.388 448.079 179.988 448.079 177.012C448.079 174.084 448.559 171.696 449.519 169.848C450.479 168 451.835 166.644 453.587 165.78C455.339 164.892 457.403 164.448 459.779 164.448C461.291 164.448 462.755 164.604 464.171 164.916C465.611 165.228 467.003 165.66 468.347 166.212V171.504C466.907 170.736 465.563 170.124 464.315 169.668C463.091 169.212 461.819 168.984 460.499 168.984C459.131 168.984 457.955 169.236 456.971 169.74C456.011 170.22 455.279 171.048 454.775 172.224C454.271 173.376 454.019 174.96 454.019 176.976C454.019 178.968 454.271 180.552 454.775 181.728C455.303 182.88 456.035 183.708 456.971 184.212C457.907 184.716 458.999 184.968 460.247 184.968C460.895 184.968 461.495 184.932 462.047 184.86C462.623 184.764 463.127 184.608 463.559 184.392V180.144H459.599V175.608H469.391V186.912C467.903 187.752 466.343 188.388 464.711 188.82C463.103 189.252 461.459 189.468 459.779 189.468ZM474.505 189V164.988H490.957V169.488H480.337V174.708H489.553V179.244H480.337V184.5H490.957V189H474.505ZM511.626 181.116V189H505.794V164.988H516.594C519.402 164.988 521.61 165.624 523.218 166.896C524.826 168.168 525.63 170.136 525.63 172.8C525.63 175.464 524.826 177.516 523.218 178.956C521.61 180.396 519.402 181.116 516.594 181.116H511.626ZM511.626 176.616H515.874C517.122 176.616 518.01 176.292 518.538 175.644C519.066 174.996 519.33 174.18 519.33 173.196C519.33 172.092 519.066 171.204 518.538 170.532C518.01 169.86 517.122 169.524 515.874 169.524H511.626V176.616ZM529.701 189V164.988H541.401C544.113 164.988 546.237 165.624 547.773 166.896C549.309 168.144 550.077 170.04 550.077 172.584C550.077 173.592 549.885 174.576 549.501 175.536C549.141 176.472 548.589 177.312 547.845 178.056C547.125 178.776 546.225 179.292 545.145 179.604L551.301 189H543.885L539.133 180.72H535.533V189H529.701ZM535.533 176.436H540.429C541.461 176.436 542.277 176.16 542.877 175.608C543.477 175.056 543.777 174.144 543.777 172.872C543.777 171.768 543.513 170.928 542.985 170.352C542.457 169.776 541.689 169.488 540.681 169.488H535.533V176.436ZM564.896 189.468C562.52 189.468 560.456 189.024 558.704 188.136C556.952 187.248 555.596 185.88 554.636 184.032C553.676 182.184 553.196 179.844 553.196 177.012C553.196 172.908 554.216 169.8 556.256 167.688C558.296 165.576 561.176 164.52 564.896 164.52C567.272 164.52 569.336 164.964 571.088 165.852C572.864 166.74 574.232 168.108 575.192 169.956C576.152 171.804 576.632 174.144 576.632 176.976C576.632 181.104 575.6 184.224 573.536 186.336C571.496 188.424 568.616 189.468 564.896 189.468ZM564.896 184.716C566.744 184.716 568.16 184.14 569.144 182.988C570.128 181.812 570.62 179.808 570.62 176.976C570.62 174.12 570.128 172.128 569.144 171C568.16 169.848 566.744 169.272 564.896 169.272C563.072 169.272 561.668 169.86 560.684 171.036C559.7 172.188 559.208 174.192 559.208 177.048C559.208 179.88 559.7 181.872 560.684 183.024C561.668 184.152 563.072 184.716 564.896 184.716ZM580.747 189V164.988H597.091V169.488H586.579V175.212H595.651V179.784H586.579V189H580.747ZM601.279 189V164.988H607.111V189H601.279ZM601.855 163.908V160.308H606.211V163.908H601.855ZM612.212 189V164.988H618.044V184.428H628.484V189H612.212ZM632.181 189V164.988H648.633V169.488H638.013V174.708H647.229V179.244H638.013V184.5H648.633V189H632.181Z" fill="white"/>
</g>
<defs>
<clipPath id="clip0">
<rect width="651" height="191" fill="white"/>
</clipPath>
</defs>
</svg>
